/* XPM */
static char *test_vinho[] = {
/* width height ncolors chars_per_pixel */
"64 64 4 1",
/* colors */
"  c #5C0A20",
". c #5C0A20",
"X c #5C0A20",
"o c #5C0A20",
/* pixels */
"                                                                ",
"                                                                ",
"                                                                ",
"                                                                ",
"            oooooooooooooooooooooooooooooooooooo                ",
"          oooooooooooooooooooooooooooooooooooooooo              ",
"         oooooooooooooooooooooooooooooooooooooooooo             ",
"        oooooooo..........................oooooooooo            ",
"       oooooooo............................oooooooooo           ",
"      oooooooo..............................oooooooooo          ",
"      ooooooo................................ooooooooo          ",
"     ooooooo..................................ooooooooo         ",
"     oooooo....................................oooooooo         ",
"    oooooo......................................oooooooo        ",
"    oooooo......................................oooooooo        ",
"    ooooo........................................ooooooo        ",
"    oooo..........................................oooooo        ",
"   ooooo..........................................ooooooo       ",
"   oooo............................................oooooo       ",
"   oooo............................................oooooo       ",
"   ooo..............................................ooooo       ",
"   ooo..............................................ooooo       ",
"   ooo..............................................ooooo       ",
"   ooo..............................................ooooo       ",
"  oooo..............................................ooooo       ",
"  ooo................................................oooo       ",
"  ooo................................................oooo       ",
"  ooo................................................oooo       ",
"  ooo................................................oooo       ",
"  ooo................................................oooo       ",
"  ooo................................................oooo       ",
"  ooo................................................oooo       ",
"  ooo................................................oooo       ",
"  ooo................................................oooo       ",
"  ooo................................................oooo       ",
"  ooo................................................oooo       ",
"  ooo................................................oooo       ",
"  ooo................................................oooo       ",
"  ooo................................................oooo       ",
"  ooo................................................oooo       ",
"   ooo..............................................ooooo       ",
"   ooo..............................................ooooo       ",
"   ooo..............................................ooooo       ",
"   ooo..............................................ooooo       ",
"   oooo............................................oooooo       ",
"   oooo............................................oooooo       ",
"   ooooo..........................................ooooooo       ",
"    oooo..........................................oooooo        ",
"    ooooo........................................ooooooo        ",
"    oooooo......................................oooooooo        ",
"    oooooo......................................oooooooo        ",
"     oooooo....................................oooooooo         ",
"     ooooooo..................................ooooooooo         ",
"      ooooooo................................ooooooooo          ",
"      oooooooo..............................oooooooooo          ",
"       oooooooo............................oooooooooo           ",
"        oooooooo..........................oooooooooo            ",
"         oooooooooooooooooooooooooooooooooooooooooo             ",
"          oooooooooooooooooooooooooooooooooooooooo              ",
"            oooooooooooooooooooooooooooooooooooo                ",
"                                                                ",
"                                                                ",
"                                                                ",
"                                                                ",
"                                                                "
};