/* XPM */
static char *out[] = {
/* columns rows colors chars-per-pixel */
"64 64 239 2 ",
"   c #2B321F",
".  c #35391F",
"X  c #292B2D",
"o  c #2E3226",
"O  c #343C25",
"+  c #393C26",
"@  c #2C2E32",
"#  c #2E3133",
"$  c #313336",
"%  c #34363A",
"&  c #383739",
"*  c #36393C",
"=  c #393B3E",
"-  c #37461F",
";  c #3C4324",
":  c #3C442B",
">  c #3C4829",
",  c #3F502F",
"<  c #3C4933",
"1  c #3E523A",
"2  c #434425",
"3  c #44452D",
"4  c #434B2C",
"5  c #484928",
"6  c #4B4C2B",
"7  c #4A5326",
"8  c #45522B",
"9  c #4B532C",
"0  c #4C5A2C",
"q  c #52542D",
"w  c #585729",
"e  c #535B2E",
"r  c #454D33",
"t  c #494D35",
"y  c #514F32",
"u  c #455333",
"i  c #4C5434",
"p  c #4D5A34",
"a  c #455638",
"s  c #4B543B",
"d  c #4C5B3A",
"f  c #535533",
"g  c #535B34",
"h  c #5B5C34",
"j  c #53563B",
"k  c #535C3A",
"l  c #5A5C3B",
"z  c #625D3B",
"x  c #4C612E",
"c  c #576229",
"v  c #5E652D",
"b  c #4D6232",
"n  c #4D643A",
"m  c #556235",
"M  c #5B6434",
"N  c #556935",
"B  c #5C6A33",
"V  c #54633C",
"C  c #5C643C",
"Z  c #54693C",
"A  c #5C6B3B",
"S  c #5D7337",
"D  c #5E713D",
"F  c #64662D",
"G  c #626235",
"H  c #626B35",
"J  c #63643B",
"K  c #6B6738",
"L  c #646C3C",
"P  c #6B6C3C",
"I  c #746D38",
"U  c #6B7236",
"Y  c #64723C",
"T  c #6B733D",
"R  c #65783A",
"E  c #6C7B3E",
"W  c #76763C",
"Q  c #747B3D",
"!  c #3C3D42",
"~  c #3A3C45",
"^  c #403F46",
"/  c #3E4144",
"(  c #3F4349",
")  c #414346",
"_  c #43454A",
"`  c #48474F",
"'  c #46494D",
"]  c #494A4E",
"[  c #4D5942",
"{  c #525B45",
"}  c #5B5D43",
"|  c #474950",
" . c #4B4D52",
".. c #4C4C57",
"X. c #504F55",
"o. c #504F58",
"O. c #4E5155",
"+. c #4E5259",
"@. c #515256",
"#. c #53545A",
"$. c #56595D",
"%. c #595A5E",
"&. c #556443",
"*. c #576747",
"=. c #5C6443",
"-. c #5C6B43",
";. c #5D6A4B",
":. c #5D7243",
">. c #5A7348",
",. c #5F7554",
"<. c #636543",
"1. c #696645",
"2. c #646C43",
"3. c #6A6C43",
"4. c #636C49",
"5. c #6A6D4C",
"6. c #726D45",
"7. c #647343",
"8. c #6C7344",
"9. c #647A43",
"0. c #6C7B44",
"q. c #64744B",
"w. c #6B734B",
"e. c #657B4B",
"r. c #6C7B4B",
"t. c #737443",
"y. c #737B44",
"u. c #7B7D44",
"i. c #73744C",
"p. c #7B7648",
"a. c #747C4B",
"s. c #7B7C4C",
"d. c #646E53",
"f. c #756E55",
"g. c #657453",
"h. c #6B7454",
"j. c #6D7C54",
"k. c #697A59",
"l. c #737552",
"z. c #737C53",
"x. c #7B7E52",
"c. c #73775B",
"v. c #737B5B",
"b. c #575A61",
"n. c #5B5C63",
"m. c #5A5B66",
"M. c #605F67",
"N. c #5D6166",
"B. c #5F626A",
"V. c #616267",
"C. c #63656B",
"Z. c #64696D",
"A. c #696A6F",
"S. c #666A72",
"D. c #6A6C73",
"F. c #6B6D78",
"G. c #6E7178",
"H. c #72777B",
"J. c #72747C",
"K. c #837B4B",
"L. c #857B55",
"P. c #6C813E",
"I. c #78833C",
"U. c #5F925F",
"Y. c #6D8243",
"T. c #6B834A",
"R. c #738344",
"E. c #7A8746",
"W. c #73834B",
"Q. c #7C834B",
"!. c #7C8B4B",
"~. c #79934F",
"^. c #6B8657",
"/. c #748353",
"(. c #7B8354",
"). c #748A54",
"_. c #7C8C53",
"`. c #74845C",
"'. c #7C855A",
"]. c #768B5B",
"[. c #7C8B5B",
"{. c #7B9458",
"}. c #798965",
"|. c #799169",
" X c #7E9C75",
".X c #87863A",
"XX c #868948",
"oX c #838B4C",
"OX c #8D9647",
"+X c #84934A",
"@X c #929445",
"#X c #838554",
"$X c #868757",
"%X c #838B53",
"&X c #838D5B",
"*X c #8C8B5A",
"=X c #918D5B",
"-X c #849253",
";X c #899355",
":X c #899A57",
">X c #83935B",
",X c #8B935B",
"<X c #8C995B",
"1X c #959859",
"2X c #939D5B",
"3X c #86A44F",
"4X c #8CA15A",
"5X c #96A459",
"6X c #A6A758",
"7X c #858B63",
"8X c #869667",
"9X c #8B9463",
"0X c #849C64",
"qX c #8C9C63",
"wX c #84926B",
"eX c #8C956B",
"rX c #959763",
"tX c #929B63",
"yX c #939B6C",
"uX c #9A9B6C",
"iX c #8C9A72",
"pX c #999E72",
"aX c #A19E65",
"sX c #9AA669",
"dX c #8CA372",
"fX c #9BA677",
"gX c #A3A667",
"hX c #AEB268",
"jX c #A5AB73",
"kX c #A5AB79",
"lX c #AAB375",
"zX c #B2B478",
"xX c #777B84",
"cX c #7D8188",
"vX c #888892",
"bX c #9AA882",
"nX c #A8B388",
"mX c #AFB688",
"MX c #B5C099",
/* pixels */
"mX@XI @.n.%.i.l #.#.w.% ! / $._ ' J %.+.n.%.C.{.3.A. .@ 8 > '.+.' 4 A n.N. .r Q W.V.N.L g 8.} 2.$X8.+X3.8.t.g _ C.8.B A } D.6 #.",
"-XU @.i.8.<.f ! #.#.V / ! oX_.) B t.4.l.r.3.5./ Q.@._ % C !.5X&.g L 4.e.L 7 g (._.@.] 6 J s.-X*Xt.8.J s.O. .r.$.#.] ' i 9.b.B C.",
"OXC #X#X1X{ /.7.m.~ l r.E.' B v :.E sX' w.n.8.J s 0 N B ~ | C ' p K  ./.$.. k.-Xu. . .Y 5.gX<.XX4.G ' | $.' '.' W.@.) 0.R.E * 5X",
"Q &._.Y u.5.%.uX7.f L 5XR e n.7.~ ' T.k =.i :.@.: X _ O.% #.e.#.a 7XO.> X.h.n.0.2 P m =.(.3.o.$X=.i._ B.8.^ ! #.T ] @.:X-.- n.-X",
"& _ b.O.O.$.=XrX8.M r.kX2.k P.R < #.b. ._ O.9.9 u ) ~ o.t.j.n.b.3 n.E.9 j iXyX..4 L k s 7X0.2.3 + *XsX$.w l.' #.V.0 0.N.) / #.E ",
"B $.S.7.7.;X@.Q R.r.Z.] ] @.$.I.r.I.o._ u } % u _.hX! ~ l g  .~ -. .R.e r _ X.9.p.Z e #.` %.l 3 K rXlXq K n.,X$.#./ _ A '  .' O.",
"XXO.).0.qX_ L E.<.&X&X@.G.n.] $.(.# ] L e.t.2 j b.:.N O r '.g h 4.W D._  .#.m.k t.2.C 3.n.n.O 3 ..D.@.1.V.oXT ' ' # _ $.K.L - q ",
"Z.4X/ R %./.Y A $XqXT. .$.a.z. .) _ N.H h u._ b.q.[ i 4 q.`.u d [.T G.) _ $.X.3 XXk b.G L r O @ D.n.] n.C.Z = A.1X% / m.L g 9 n.",
"H._.W $.*.V 8 v.yX) ) @.$.O.j.=.#.C.yX_ X.P @.X.! ' r _ 4.$.A *.C.6.9XH 2 z.z o.$.3.P aXr.] = w.n.) @.C.[ u J fX2XE.O.B.n.+.t.+.",
"V._ O.w.J.d %. .&X%.7 ) = O.@.= /.7X9.) ! oXQ <.] ! V -./ O.J $Xn.z.2.6 j f.5...@.<.z $.h ] ] n.Q / $.n.n.t z zXy.@ O.7XO.%.5.#.",
"D.P ] g./.E.w._ ! n.$.' ' 8 +Xw.).7.3.' ] XX#X4 Y ! ' {.#._ e (.V.3._.D.@.! c.eXx.6.gXgX) 6 +X8.oX] ..n.C.7.h._.t.) O.s.f f eX#.",
"yX= ' $.e.P # ) J.J.#.' O.W.#.#.M p i.' ! {.7X= < % ' #.B e g k s 3.} %.$X! N.v.f z XXs.g i Q.m.XX) 8.(.l j 9Xn.! J sX,X9 -.t.b.",
"_ Z $.n.%.] $ #.D.C.@.] 9.$.:XD B ! Z.7.) ].}.-.k 9XN.r.f w.-.3 3  .gX$X5.! #.1.+ v.7.<.f = b.J O.,Xa.7 p } w.J O o.O.2.2.'.L.L.",
"X.%.#.%.V.' X..XC C.] ] w.) /.n L a.6.3 V ,Xw.s (.J 8X8XH _ <.M 6. .t.f y _  ._ o.&X'.^ f $.G.D.O.w.R.J 3.:.`.i.7.C.1Xp 7.wX}.P ",
"A.C.t.y.V.@.sXP W.[.'._ z.>X~ b.-X0X) : m.tXP ].bXh.' c.x.E.7 +X2Xr.R.h o.%.~ ! 5./.} P O.b.c.O.@.O.@ t.3.2.h F 1XlX] L 7.n.= J ",
":.#.1.D.%.$.q T #.@. .8X/ d ' F.J.8X< j M. . .w.7Xx.b.O.! ^ q.$X%.L M n.@.` f.} w.2.'./._ b.=.=.C.] * r.M.B q F vXl. .pXi.C _ 2.",
"~.' #.J.x.z D.;.zX' %.4.1.r U B.N._   p.@.#.oX7.n.%.7X^ _ ..yXfX5X] : L.9Xf =.%Xz.d v.fX,XfXK V.H X.C.jX@Xw w 9.vXh c.kX`.! e :.",
"T.P.7.xX=._ d.qXs.= ` ' #.#.$.).tX/.X.X.oXO.@._ n.l J @. .@.wXeXOX9 ~ z.C : t.1XO.+.k.x.1.K.' M.P G '.'._ ) C.6Xi.M <.jXuXV 8 D ",
"_ & 0.y.' r yX7X` ! _ D.$.$.D.g.../ ] o._  .n.@.n.! ..j.{ yXs _ %.A s.g.V 4 #X1XG f !.l.j.i ..C.X._ @._.@.] :Xn.Q P ] ) XXj <.A ",
"R * N.:.@.=.V.uX^ ] #X..C.C.' k._ ' A.XX5 f f %./ $ $...) 4./ #.~ 7.~ 4.j f  .+.* / #.` ] j A J.' & ` f F K K.T.R.q ] O.8.<.9 [.",
"@ ( +.9.3.$.' ` ] ] fX .j.%.d ' i.a.q...= ' ` z 3.y.C.` ! /.'  .O f p.5.-.2./ o.n.@.' _ O.t.w.C.f 3.] G K XX$.8.m _ @. .8.w.g ] ",
",X/.j.e.7.C }. . . .pX: xX@.s 4.] z.n.@.^ @.! s.,X' n. .8.'./ / s  .n.#.;.>XA v Q.5X) @.r.b.sX+XV n.:XL q s e.7.) ] q.' l y.D.' ",
"yXrXyX).d q.j i.h.n.S 8 v.l.a...n.yX_.U N 4X: w.0X<X9.4 &.yX_ % } ' $. .n.r.9 A.hXR 2 0 V C.C 2 K jX%X_ X...#.+X..] _ 0.T 6.7.(.",
"V.f.#Xq.] _ o.$.@.eXD 9 e.kXs.D.b.a.f @.) XXX.wXeXY.2 %.X.@./.* o.rX$.x.@.P v J.@Xw _ @.A 3.t.f 2Xu.F ' E ' $.m.i = ! t.-X;X8.$X",
"C. .w.C.}.' o.&.&.Q.g 7.V.@X~ uXjXs.7X9X8.F T wX7.g g ' * @._ _ n.#X .9X]  .&.V...w ] @.L f 9.1X=Xy.q _.a.@.n.cX4 7.2.g./.P K XX",
"n./ =.A.iX-.C W.T._ W J X.P ` ..rXz 9XX.W.k |.0XL :.#XsX=  .#.uXnX<.C.'.' ) 4.%. .C (.sXF q L m.=X#X@.$XC v C.D.7.E a.A.| g 0.D.",
"n./ %.uX`.) d B.n.d ~ b.C e O.b.l.o.v.&Xk 4.S.8.n |.nX=Xh M i. ... .MX&X{ s a }.` ] uX' ) m _.l.#.,X#X&XL % 3 L Q.% #..._ e sXA.",
"9.g tXQ.$.,XN P sX.._ b.Q g tXO.b.d.fX7X] x.9X-.1 wXrX;Xf i C i.X. .G.2Xu < @.[ !  .'.#.) l &X$.] ' n.#Xw.6 ..u.Y.n n.J ; e :XY.",
"' i.-XV x.1.%.O./ #X7XrXl.a.W.y.J a.nXl ^  .@.' s 5.#.#Xy.$ n p $X#.D.v 2 -.>Xi.) J #.` % # #.$./ %.#.4.w.C 2.$X7 p _.W.i = <X .",
"/ w.@.C &.p.O.O.~.B.w.4.,.q.X.O._.N.J.6 @.%.$.#.g.` b.f _ ] V.D.t.0X_.; @.dX&Xs.! $.Z.@.* ~ C.O.* ' 6 V 9.!.C.X.#.-X'.q.* g b.| ",
"s a 9.n #.4.) W.&X5X[.>Xl 8.` $.( Z.F.p  .X.f.#.= ] n.G u. .S.D._.t.| O %.rX#.i  . .(.s w.-X#.#. .L | O.9.H ' Q lXnXL 7.3.*._ #.",
"C / q.C a.z.7.D.n.u.2.2.2.e.>X ._ N.7.n.%.%. .$. .n.L @.O.F n V.4XK 8 i %.$.#Xn./.-Xz z i.$ b.h U A / #.@.M Q sXmXT 4 2.j.k.#.+.",
"H Y.@.h C.R *.A.n.L i n.@.<.O./ _ B.L @.@.T I.&XbXC C  .@.> k 9X$ _ u x.' %.rXA  .= C zXOX% m.g c = XXD. .) ;XeX9X8 / #. .w.r.Z ",
"[.!.L C yXk / V.sXC 8.%.@.Y D.O._ O.v.|.].) ] tX1Xf i C ) ..g.sX* _ $.:Xh =.&X' ] = @.jX3.-.L XX_ O.X.C ] #.tX%XJ 9  .V.6Xi.3 -.",
"}.=.=.G.fX^.' G.B.;.g.$.#.s.fXdXO.e.7XO.] !  .XX@.] >X/.) ! *.9.p t.1XP 3.4.g.O.) ) V. .W.f : l C g i k #.+.5XhXa.<XXXXXi.C 2 d ",
"}.=.X.F.|.s #XW.: O.b.%.#.<XY.!.s j.g.O.O.] W $._ @.0X0._ ( O.#.C fX].r d.}.] n.^ A A.n.% 5 l ;X8.t.3.=.Q.2.[.%Xt.$ $.K ../.C |.",
"$ &.W.9X9X/.`.y.> / Z. ./ $.< p t ! 9.&.Z C.V 1.) n.sX0 ~ lXxXp p j.|.^.uXJ  .#.1 ^.$.= U S J.a.* 5.P _ i.! /.q.3 o.$.| a.m xX@.",
"@.>.&.lX#X9.@.= V O.xXi 6 z.p V # h m 7.>.D.d ] / H.J. .=.|.bX:.< k.,.#.oX1.r   T.{.! ; ) -X-X) ! ;X) ) !  .}.> 9 I <.2.k $.D.O.",
"fX8Xm.eX! 4 @ ' g Q.$Xm 8.i./ O.*X#.2Xy.7.R ) &. .hXZ.' w.MXW.: v.U.;XI 3.p.s q ' !.x > C.L A * @.;X_  .O._ (.g ~ h R.W. .$.] !.",
"I.= n.&X&.; ~ p p.<X>X; -.] / #.t.%.H.@.!.O.7.r.kXQ.7 0 jX2XN < }._  .5.>.d ! ' / # 0 _ 0.y.d #. .s.l #.h.% / % : 3.Y.i X.n.!.u.",
"] @.F.4.W 0.b #.L.kX:.p V % * +.uXZ.C.P.@.O.2.l e._ 2.W =X-Xw iXiX_.g  .Z j.`.%.) $ ( A 0._.8.+...7X{ c.c.!  .v 0 :XQ m Z.' / n.",
"#.=.h.] ;XQ.B P qX&X= : #.! +.sXO.#.}.; e >X2.) ~ d jXrXJ 8 2.%X| 0.* / 2...] ) Y ! n.-XL tX&X/ 6.c. .c.' '.].e.U !.M e z.j._ b.",
"A.d.5.#X-.S J ).r.@ / _.C % #.`.S.b./ N 3 /.9.& ~ ( ;X>X: < f k >XB _ +.t C _ @ s ! a.M U z.w.qXV c.}.;.c.=.$ ..).L -.x P ^ L 2X",
",.z.*Xi 6.) T dXr.=.N.5 V _ ' W.k g.}.A f r.g N , ..G.! O % ( <._ = t w.' @ &.L h J 2XV q.Q @.[.w.@.>XL 0Xt % b.qX@ n.-.W 7 9.wX",
"[ bX'.t 9.A {.`.4 2.Y B ' /  ._.2.O.qXp t.K.n V k ~.M.) p =  .G./ ' 4.=.l C  .s.J L r.e.4.8.B./ * ' *X7.'.8 0._.u +.C.1.q./ S.eX",
"d  X*.@.) 6.uX_.= R m C :X .O.N y.6XvXA u #.-.' < vXp . ) W.m :.).q.5._ = ( T .X.X8.E.; A ( /...O.n.=X<X!.$ L K.3.;.'.1.! +.Z.g ",
"|  X,.] ..&.iXi.XXI.m XX1XI @  ._ R.W.= @.{.q./ O.~.J.E / / , >.| ~.{  .$.] h M @.!.U z e.c.k #.2.jXkX!.c w W 8.P 5._.w.O.>X_.% ",
"' 4XH '  .q.jXW.9 e 0  .+.T./ ' _ sXA.^ G.yXY.d > Y 0.q.= / Z m.-X:.s ;.D. .C 9.E O.O./ ;.d 2.4 J @ A C D B.Q !.L ) ) % ] ,X:.# ",
" .{.=.4 $.n.@.L i (.Z _ n._ 9.d 2.e.] _ `.sX@ ) A R B.2.g * 9.0.4 r *./.!.H @.G.' '  .K.* ~ +.2.$ % ' m R ,XY U T ! ..@.%.=XOX% ",
"B.-Xk + c.n._ Y -.,X*X! #.XXr.9Xm 0.8.=.B.= = #.8.n d &.a.O.f / $ ( ;XL  .O.;XO.= / f r.g N , Z u ] J.%.oXsXY.n.W.=.$.7.jXjXs.' ",
"n.L P B %.fXR -.t.k <._ ' @.@.M / = +.D.+.' / #.$._ 0 ].r.~.H = ~ 2.XXp O.N.r.*.= G y.s.n V k : 3  .xX..) b.E.N.' / N.<X/.:Xf n.",
"! $ M p.sX;.* l.j _ A.8.H @.n.m # / cX%. .1.E m./ -.Y :X% / R ;.{ <XB.) ] @.9.: ) / u +.-.' ( C q ~ $._ ' #.s.D.! = O./.%Xg  .V.",
"= | P i.u.h @.n.<  .C.^ 9.).G.#.$ gXcX' n _ ' N.= _ cXf # #.F.N.q a.n.^ ! XXv 7 = n.O.[.7.! : _ @ 9.9  ...B vXp.2 _ M.;.Q.P.V.N.",
"s.0.y.r.1.4.] = % $.$XX.g Z Q.@.$ tXC.) ) O.O.O.# N.xXc = D.A.! # A.&._ .X6 #.! #  .Z / _ Z ' @ ) b.B C oXZ.D.r $ ~ b.wX`.Y x t.",
"=X@.T  .C.OX@ = 3.,X<X) 7.8.>XsXjX%XB m  .' / ].-._.n.^ J %XH Y ] cXH.@Xw ' L * % Y.^ #.C.@.-.! N.G.Y Q @.#.O.$ < ].#XmX@.@.; 1X",
"1Xw.g ! n.9 i + +.4XsX=.a.C.%.wXM H E +X_ _ ~.T.e.-.s.;.5.<.9 G @.G.Y.b 6 i E.~ :.4 g g z.w.o =.mXz.7.= M r J ! / 5X3XXX` %. .{.",
"_ H I.2 $.' r h (.$.X.: } #._ 4.n C 0.q c B x a ! _ -./.Y L < ..N.n.N ; + =X}.p % % P W.l.r.q.J W _ 7._ ! 8./ ] O.T O.8 C.| _ 4.",
"f #.F ` N. .b _ b._ _ [ 7XpXl 6.O. ./ : j.0.' _ ] ) ..*  .N ] #.] O.! # <.wXr.@ $ ' J.e.M  .! R q Q F ~  .y ' _ -XE ; -.V. .~ ~ ",
"C.B B L gX6X9 #.b.B 9.5.! l % U A._ e p >.( O./ _ % ' m...u ^  .0 2.A u } c.k X < j _.u = ..3.+X .$.O.V a.C.4 : !.!.N w.2Xr.0.W.",
"' L @.2.[.! _ V.! g 7.u  .m Z S.' 8 n.| p i @.#.% ! e.s [ ! 9.+. .% 9 2.( #.a.i ~ | 3.> $ ' C _ ! ) ) t.#.+.! ' p 5 h z.V ! ~ B.",
"@.@.%.y.2X@.%.N./ ] D.q X./ C C.' ~ C.O.R u r.E.4 _ J. .-.V ! m. .<XT h ~ #...+. .O.| e % +.b.o. .$.B q $.n. . .T Z t _ _ 2Xb.F.",
"p #.N.2X+XC C U ! n.b.p #./ 0.u < O.W.C : ' G.m $ C.S.! 7.N _ ~ ! T.n.^ V t _ ~ ;.s +.* ( b.m.| ^ ] T n.n.$.O V Y.V $.) #.hX*Xa.",
"n.-XE.+XR.$.' / %.] +.7XqX0.4.9.$.!.:X0 b D M s.9.N.$.~ ( T.% ` ` #.$.X.: #._  .l.E.] / _ -XP u.J %.#.V.C.7.i q.n.H.b 8 n.$.s.u ",
";X6X@X_ $.%.'  .%. .A &X% < _ m.C @.@.' Z.E.D.$X] W O.# $ i k +.O. .n.| #.#.= -.OX@./ / E C K 3.*X7.%XW.T  .3.-.cX).R 9 #.n.V + "
};
