/* XPM */
static char *out[] = {
/* columns rows colors chars-per-pixel */
"64 64 15 1 ",
"  c None",
". c black",
"X c #101520",
"o c #181F2F",
"O c #222323",
"+ c #372423",
"@ c #2D3136",
"# c #49251C",
"$ c #583126",
"% c #1D2C43",
"& c #2E3D47",
"* c #23324D",
"= c #434549",
"- c #885041",
"; c #9A624C",
/* pixels */
"                                                                ",
"                                                                ",
"                                                                ",
"                                                                ",
"                                                                ",
"                                                                ",
"                                                                ",
"                                                                ",
"                                                                ",
"                                                                ",
"                                                                ",
"                                                                ",
"                                                                ",
"                                                                ",
"                                                                ",
"                                                                ",
"                                                                ",
"                                            ....                ",
"                                           ......               ",
"                                          ...OO...              ",
"                                          ..oooo..              ",
"                                          ..*oo*..              ",
"                           ...........   ...*oo*..              ",
"                         ...................*oo*..              ",
"                      ......XXXXXXXXX.......*oo*..              ",
"                    ......XXoooooooooXX.....*oo*..              ",
"                  .......XoooooooooooooX....*oO=..              ",
"                 ....&..XXoooooooooooooXX...*oO=..              ",
"                ...&&...XXoooooooooooooXX...oooo..              ",
"               ...&&&..XXoooooooooooooooXX..*oo*..              ",
"              ...@&&...XXoooooooooooooooXX...ooo...             ",
"              ..@@@&..XXXoooooooooooooooXXX..oo*....            ",
"             ...@@@@..XXXXooo%%%%%%%oooXXXX..OOo.....           ",
"             ..@@@@@..XXXXX%%%%%%%%%%%XXXXX..==...-..           ",
"            ...@@@@@..XXXX%%%%*****%%%%XXXX......;-..           ",
"            ..O@@@@@..XXX%%%%*******%%%%XXX.....;;-..           ",
"           ...OO@@@O..XX%%%%*********%%%%XX..;;;;;-..           ",
"           ..OOOOOOO..XX%%%%*********%%%%XX..;;;;--..           ",
"           ..OOOOOO...XXX%%%*********%%%XXX..;;;---..           ",
"           ..OOOOO....XXXX%%%*ooXoo*%%%XXXX..-----O...          ",
"           ..OOO......XXXXX%oooXXXooo%XXXXX..----@O...          ",
"           ........+..XXXXXXooooXooooXXXXXX..&&&&@@O..          ",
"           ......++#..XXXXXoooooooooooXXXXX..&&&&@@O..          ",
"           ...+++###..XXXXXoooooooooooXXXXX..&&&&@@O..          ",
"          ...++#####..XXXXXoooooooooooXXXXX..&&&&@@O..          ",
"          ..+++####$..XXXXXoooooooooooXXXXX..&&&&@@O..          ",
"          ..++####$$...XXXXXoooooooooXXXXX...&&&&@@O..          ",
"          ..++###$$$$..XXXXXoooooooooXXXXX..&&&&@@@O..          ",
"          ..++###$$$$...XXXXXXoooooXXXXXX...&&&@@@@O..          ",
"          ..++###$$$$$...XXXXXXXXXXXXXXX...@@@@@@@OO..          ",
"          ..+++##$$$$$$....XXXXXXXXXXX....@@@@@@@@OO..          ",
"          ...++###$$$$$$.....XXXXXXX.....@@@@@@@@OO...          ",
"           ...++##$$$$$$$$...............@@@@@@@OOO..           ",
"            ...+###$$$$$$$$$............OO@@@@OOOO...           ",
"             ...+###$$$$$$$$$$$$$###+..OOOOOOOOOO...            ",
"              ...+###$$$$$$$$$$$$###+..OOOOOOOOO...             ",
"               ...+###$$$$$$$$$$###+...OOOOOOOO...              ",
"                ...+####$$$$$$$####+..OOOOOOO....               ",
"                 ...+#############++..OOOOO.....                ",
"                  ...++##########++...........                  ",
"                   ...++++++++++++..........                    ",
"                    ....+++++++++...                            ",
"                     ..............                             ",
"                       ...........                              "
};
