/* XPM */
static char *out[] = {
/* columns rows colors chars-per-pixel */
"64 64 19 1 ",
"  c #66372D",
". c #673A2D",
"X c #6D3D2E",
"o c #723E2F",
"O c #6E3E30",
"+ c #733F31",
"@ c #793F31",
"# c #6F412F",
"$ c #73412F",
"% c #79422F",
"& c #6E4130",
"* c #754231",
"= c #7B4433",
"- c #7D4934",
"; c #814634",
": c #824935",
"> c #894E34",
", c #854A38",
"< c #884C38",
/* pixels */
"****=++O++**===+=-=-=,@====*:-*=-=**:**=-*=*$*o*===**+o*&**@*=+O",
"**@=*@OX@+==-=++====,-*+==*=:-*=:=**-%$=;=**#$o$;=****oo**=***Oo",
"=*+++**@=+@**=**=*@===+**+*=,=+***+*-=X$++++**X$***&**X$=**+@@+o",
"=*oX+=;=+****@=**=*+*======*=-***=**=;***X+o*=*==*XX&=**=+oOo=+=",
"=@XO@o*++*+O*+*==-,+===*===O=@=*=%@*=*=%=#+%$*==+++oX$=**+oOoo==",
"=+OOoo==*+XO=o;;===+@@,-==;*=@-==;=;=*==+**=**-*+*@X*+*=*+X+*O==",
"+==+@**@*==+=@=;-@=+@+=-=*=O*O++$*+o$X**o****+*&O**@=*$+*=@+@+*=",
"=;=@**++*=====*======++*--=*=OO==;:*& O=*;;**X#$===*+XX+=;=+=+++",
"==****Oo+*=**=*+*===--+=*=--:*+=**-*-#*-$=-==*$====*$Oo*==**=*++",
"==*==++++*====+O@*-=--*****=*=&=**=*-$$====*==*===&***OX==*=*+++",
"***=++*+**@==*=**+=;-=+=****-**=X****=******==*$***&*=+O=*=**=++",
"=*OO**==+**+*+-=*++=*=******==*=XX*$===*****-=-==*OO==*****+=,=*",
"@=O+%+%=**+++*=**=*++=;*===+++==***@*===*&***;==+OOX+==**++$=*=*",
"=+++@=+==+*+=+===***@*==;=*=*@=**$$=*==*+===**=***+o=*==*+o*=+*=",
"*==+****=***==*==*+O*+=*=*oo&O*+*$*$*+*+**=-***+****=*+=+*=@=*+;",
"=;==*+O======*+**====+&*-===+XO**===*O+*--,=*@**;===****-==+@+++",
"=-=**=++====**+**--+==++**---*+*&*--==*=**-===*$$*==***==:-**=+*",
"==**=**+=*==-****===-=***==*-**=&=-*====**=*==*=====++*=====**=*",
"==@=*====;*===**==+*=@+**+O*,***&&**=**=+o$&***=*$***=:-===**==+",
"=****=+********==++**+*-**+*=*O=**=$-%*=$X=%-;=*****-,=****X*,=*",
"*=**=====*****=:*&O*+*=-=******=**-*=**-*o=**==-**@*=-==++**==-=",
"=*=*-====***=*===***=@+@=*&*&=-=**==*=-*X*;=*%-*X*=;==-=+@;=====",
"=*===o@==*=*@=*=+*+++O=++*O+&+**=*==&X*X*;=;&*=o+==;****+=;;*o*;",
"-==+=*+**==+=+*****==OO****-=+*&==-:*X***:==$**=-;=**=**<-;=***=",
"--=+*=**;==*==+**-====+&*==--****=--=****==-*=-$=;-+**==-==**===",
",--=*==*;=-==*=*:*=**=***=====-=*,-*==--*=-**=;;=-,=**----:==+;=",
";==;=**=;===***====*=*+****=-*-*****-=--OX*=*=,<*+@++=->**;=*=;,",
"++=+**$***=***X==****X*-=***=*&-****==*-**=*-;;=X*-=*---O*===-=*",
"****$*;-=***+X%;=**&*O*<=****-*-**=*,-=,**==--:=X*===<>=+====-:=",
"@*==;==:=*+*=$*===*****=-**=**-****-*;=*O*;;*=-XX+;;==-*O@=:,=-*",
"===*=$*=X*******&*&***=**&**&*=&*=***&**-=-=&**OO,;;***OO-:=*$**",
":,=*oo=*+=*****$&*****=****==&=&-*=-**-=><=-$*=*>-;:*===<=--$*==",
"-;*$+=*$*=*==**#===*=-*&===*==$&-=*-=*-*:=**$***=-=*+*==-=%***;=",
",==*++=*,**==*+$;*****==>==***-=*--*&=:==;=**=<;--=#X*,;:=-***=;",
"==;@=+*:;;****&=;=*%*****=**=*******=;-=**+**---=o$$+=,;=+=@*==:",
"o$=+***=**+&+**;=**O*&*=-**&-**-=*=*:-===%;*===-#$=*$-:-o$;$*=*=",
"**$o$%%===o$oo*,;*X#=**,=**=;*=-****:=*-#*=*::=-X*===*--+****=--",
"Xo=*,*$***o***=:=***==&*=**--**-*+====**X*==-==*X*;;==$#X+;;:*=*",
"**;==**o***=*==*&**********===***--=***&*:-=**&+*-::*#*X+=-=*.*$",
"====+$***=*==**+**==-****&*-*%=*=*-====*-==;-$=*;==:**=*,<-=$#;*",
"=$$*=*=%=@==-=***=====+*;+*=====:**==***-$$=**==>*+***-*=*#***;=",
">*o*****-=**===*-==*****==*+#*:=<=****:=;-*&*=<=>=*+*=-;;=*O**;;",
"=O@%*@$==;=*+=+*-;=*****;***$*=*==***=:=;****=<-=*o*==-::+o++=;;",
"**+****=*=@*=@*;=-@+***,;===***;===*=====*=**=-====+$===o$*o+=*=",
"*=*+**%===O+@==,-=+&***,--**;**;===$%*-:o*=***==*==*-==*+**+**o*",
"+$*=;o+*==*****==*==*==;**=*=**;=*;*:==:$*,;===***==;==*o***;*$*",
"+=;**X*$*+===*****=*==*==*-;==**=*--;=***---=**+=;;-=$Oo+=--*.$o",
"*===+*$**==+*-=*+@-==-=**=;==:=*===--;=**-====%$===***+*=;==#X$$",
"++***==**o=*;;@*=*;*:;=%=**o=:$=%X$==-*$%**==*=******==**+****;*",
";*OO*=**=+++*=**===@=*=*==*o%o==>+****-=-=*=**>===*O*==*-***+=**",
"=XXo*@====*o=**===;**@=**@**+==*=*+*$*=*==**==-=;*XO*==***+o*=*=",
"+oXXo@=*+=****@==;*O@**;=;;**===;*=***===$****=*+oXX*==*+*OX***=",
"*=XXOO+**=oO=++==-*,=**=;:=;;*====*#o*;==***o*==+++X+Xo***oXXX+*",
"++O+*O*o+*X+=*==**=*===--*==;@=-**=*o==-=*<=o-==++==*o**+oo+%o=*",
"++==*++o++**=*==*+-*=*===*-==**===;$***====%=%+o*==*=$oo+****X++",
"O+=++Xo+++=@*****==,==**===*=;=**,;$=****=**=+***;=+O.X$*==*OXo#",
"XX*+++*O*++**==*=+=+,-@=;+=*::**-$;***$*%*$*=*o*=*****+*O++*O+@&",
"+X****X+=*+****O===*-=%=;=**=%*=;**$%$=*=*$**X**=**+$+*o$*=++=+o",
"*@oo*++==*+++@**=@====@*;*@*%=$$%++*$;=$*=@+*=+*=*+$**OO+*+o+**o",
"@*XO+*@=+*++*==*==@+*======$*:=$$*=*$,=+=**$$-=**X+oo**+@+OXO@**",
"*+XX+O+++*oO*++*=====*%==;;;======**$=;***+$***=*XXXXX==O++XXX*+",
"*+ .*+;**oXO=@=;===*;==-%;=*;=;===;=%*==$o=@$*=**Xo**O;=++X+oX;*",
"+@+*@+=+*+=+=*==*@=*=*=-=*=$=**=%=*o*X******=*++X@o*=++++*@**+*@",
"+;=**+++*==@==***=;=;=*==,;;;***=,;+*+*=*;;**X+o*;=@+Xo++==+*OX+"
};
